<svg width="34" height="40" viewBox="0 0 34 40" fill="none" xmlns="http://www.w3.org/2000/svg"><path fill-rule="evenodd" clip-rule="evenodd" d="M29.8283 31.7276L11.866 37.0401C11.3173 37.2026 10.7913 36.728 10.9067 36.1745L17.3235 5.4435C17.4436 4.86881 18.2379 4.77756 18.4886 5.30975L30.3698 30.5398C30.5939 31.0158 30.3383 31.577 29.8283 31.7276ZM32.9083 30.4747L19.1514 1.26147V1.26084C18.8064 0.53053 18.0864 0.0486535 17.2704 0.0039659C16.4333 -0.0447842 15.6832 0.358967 15.2601 1.04616L0.340086 25.2118C-0.122103 25.965 -0.11304 26.8937 0.366336 27.6378L7.65948 38.9353C8.09417 39.6097 8.84729 40 9.63011 40C9.85198 40 10.0751 39.9688 10.2945 39.9038L31.4645 33.6425C32.113 33.4506 32.6433 32.9919 32.9208 32.3837C33.1974 31.7753 33.193 31.079 32.9083 30.4747Z" fill="#0C344B"></path></svg>