<svg  width="130" height="32" viewBox="0 0 130 32" fill="none" xmlns="http://www.w3.org/2000/svg">
<path d="M55.512 24.288C54.184 24.288 52.896 24.112 51.648 23.76C50.416 23.392 49.424 22.92 48.672 22.344L49.992 19.416C50.712 19.944 51.568 20.368 52.56 20.688C53.552 21.008 54.544 21.168 55.536 21.168C56.64 21.168 57.456 21.008 57.984 20.688C58.512 20.352 58.776 19.912 58.776 19.368C58.776 18.968 58.616 18.64 58.296 18.384C57.992 18.112 57.592 17.896 57.096 17.736C56.616 17.576 55.96 17.4 55.128 17.208C53.848 16.904 52.8 16.6 51.984 16.296C51.168 15.992 50.464 15.504 49.872 14.832C49.296 14.16 49.008 13.264 49.008 12.144C49.008 11.168 49.272 10.288 49.8 9.504C50.328 8.704 51.12 8.072 52.176 7.608C53.248 7.144 54.552 6.912 56.088 6.912C57.16 6.912 58.208 7.04 59.232 7.296C60.256 7.552 61.152 7.92 61.92 8.4L60.72 11.352C59.168 10.472 57.616 10.032 56.064 10.032C54.976 10.032 54.168 10.208 53.64 10.56C53.128 10.912 52.872 11.376 52.872 11.952C52.872 12.528 53.168 12.96 53.76 13.248C54.368 13.52 55.288 13.792 56.52 14.064C57.8 14.368 58.848 14.672 59.664 14.976C60.48 15.28 61.176 15.76 61.752 16.416C62.344 17.072 62.64 17.96 62.64 19.08C62.64 20.04 62.368 20.92 61.824 21.72C61.296 22.504 60.496 23.128 59.424 23.592C58.352 24.056 57.048 24.288 55.512 24.288ZM73.1207 23.376C72.7527 23.648 72.2967 23.856 71.7527 24C71.2247 24.128 70.6647 24.192 70.0727 24.192C68.5367 24.192 67.3447 23.8 66.4967 23.016C65.6647 22.232 65.2487 21.08 65.2487 19.56V14.256H63.2567V11.376H65.2487V8.232H68.9927V11.376H72.2087V14.256H68.9927V19.512C68.9927 20.056 69.1287 20.48 69.4007 20.784C69.6887 21.072 70.0887 21.216 70.6007 21.216C71.1927 21.216 71.6967 21.056 72.1127 20.736L73.1207 23.376ZM87.9904 11.088V24H84.4384V22.464C83.9424 23.024 83.3504 23.456 82.6624 23.76C81.9744 24.048 81.2304 24.192 80.4304 24.192C78.7344 24.192 77.3904 23.704 76.3984 22.728C75.4064 21.752 74.9104 20.304 74.9104 18.384V11.088H78.6544V17.832C78.6544 19.912 79.5264 20.952 81.2704 20.952C82.1664 20.952 82.8864 20.664 83.4304 20.088C83.9744 19.496 84.2464 18.624 84.2464 17.472V11.088H87.9904ZM104.371 6.192V24H100.795V22.512C99.8669 23.632 98.5229 24.192 96.7629 24.192C95.5469 24.192 94.4429 23.92 93.4509 23.376C92.4749 22.832 91.7069 22.056 91.1469 21.048C90.5869 20.04 90.3069 18.872 90.3069 17.544C90.3069 16.216 90.5869 15.048 91.1469 14.04C91.7069 13.032 92.4749 12.256 93.4509 11.712C94.4429 11.168 95.5469 10.896 96.7629 10.896C98.4109 10.896 99.6989 11.416 100.627 12.456V6.192H104.371ZM97.4109 21.12C98.3549 21.12 99.1389 20.8 99.7629 20.16C100.387 19.504 100.699 18.632 100.699 17.544C100.699 16.456 100.387 15.592 99.7629 14.952C99.1389 14.296 98.3549 13.968 97.4109 13.968C96.4509 13.968 95.6589 14.296 95.0349 14.952C94.4109 15.592 94.0989 16.456 94.0989 17.544C94.0989 18.632 94.4109 19.504 95.0349 20.16C95.6589 20.8 96.4509 21.12 97.4109 21.12ZM107.596 11.088H111.34V24H107.596V11.088ZM109.468 9.288C108.78 9.288 108.22 9.088 107.788 8.688C107.356 8.288 107.14 7.792 107.14 7.2C107.14 6.608 107.356 6.112 107.788 5.712C108.22 5.312 108.78 5.112 109.468 5.112C110.156 5.112 110.716 5.304 111.148 5.688C111.58 6.072 111.796 6.552 111.796 7.128C111.796 7.752 111.58 8.272 111.148 8.688C110.716 9.088 110.156 9.288 109.468 9.288ZM120.719 24.192C119.359 24.192 118.135 23.912 117.047 23.352C115.975 22.776 115.135 21.984 114.527 20.976C113.919 19.968 113.615 18.824 113.615 17.544C113.615 16.264 113.919 15.12 114.527 14.112C115.135 13.104 115.975 12.32 117.047 11.76C118.135 11.184 119.359 10.896 120.719 10.896C122.079 10.896 123.295 11.184 124.367 11.76C125.439 12.32 126.279 13.104 126.887 14.112C127.495 15.12 127.799 16.264 127.799 17.544C127.799 18.824 127.495 19.968 126.887 20.976C126.279 21.984 125.439 22.776 124.367 23.352C123.295 23.912 122.079 24.192 120.719 24.192ZM120.719 21.12C121.679 21.12 122.463 20.8 123.071 20.16C123.695 19.504 124.007 18.632 124.007 17.544C124.007 16.456 123.695 15.592 123.071 14.952C122.463 14.296 121.679 13.968 120.719 13.968C119.759 13.968 118.967 14.296 118.343 14.952C117.719 15.592 117.407 16.456 117.407 17.544C117.407 18.632 117.719 19.504 118.343 20.16C118.967 20.8 119.759 21.12 120.719 21.12Z" fill="#082133"></path><path d="M0 2.74286C0 1.22802 1.22802 0 2.74286 0H20.1143C21.6291 0 22.8571 1.22802 22.8571 2.74286V20.1143C22.8571 21.6291 21.6291 22.8571 20.1143 22.8571H2.74286C1.22802 22.8571 0 21.6291 0 20.1143V2.74286Z" fill="#C9D3DB"></path><path d="M9.14258 10.5143C9.14258 8.99944 10.3706 7.77142 11.8854 7.77142H29.2569C30.7717 7.77142 31.9997 8.99944 31.9997 10.5143V27.8857C31.9997 29.4005 30.7717 30.6286 29.2569 30.6286H11.8854C10.3706 30.6286 9.14258 29.4005 9.14258 27.8857V10.5143Z" fill="#9F6BF4"></path><path fill-rule="evenodd" clip-rule="evenodd" d="M22.8569 7.77142V20.1143C22.8569 21.6291 21.6288 22.8571 20.114 22.8571H9.14258V10.5143C9.14258 8.99944 10.3706 7.77142 11.8854 7.77142H22.8569Z" fill="#8044E2"></path></svg>