<svg viewBox="0 0 102 40" width="102" height="40"><path d="M99.082 22.213l-1.044.035c-.785.024-1.369.166-1.753.425-.383.26-.575.655-.575 1.186 0 .761.437 1.142 1.31 1.142.625 0 1.125-.18 1.5-.54.375-.36.562-.838.562-1.434v-.814zm.796 4.584l-.523-1.345h-.07c-.455.572-.922.969-1.403 1.19-.48.221-1.108.332-1.88.332-.95 0-1.698-.271-2.244-.814-.546-.543-.819-1.316-.819-2.319 0-1.05.367-1.824 1.102-2.323.735-.498 1.842-.774 3.323-.827l1.717-.054v-.433c0-1.003-.513-1.505-1.54-1.505-.79 0-1.72.239-2.788.717l-.894-1.823c1.14-.596 2.402-.894 3.788-.894 1.328 0 2.346.29 3.054.867.708.578 1.062 1.458 1.062 2.638v6.593h-1.885zm-14.82 0h-2.7v-5.779c0-.714-.12-1.25-.358-1.606-.24-.357-.615-.536-1.129-.536-.69 0-1.191.254-1.504.761-.313.508-.47 1.343-.47 2.505v4.655H76.2v-9.894h2.062l.363 1.265h.15c.265-.454.65-.81 1.15-1.066.502-.257 1.077-.385 1.726-.385 1.481 0 2.484.484 3.01 1.451h.238c.266-.46.657-.817 1.173-1.07.516-.254 1.099-.381 1.748-.381 1.12 0 1.97.288 2.544.863.575.575.863 1.497.863 2.765v6.452h-2.708v-5.779c0-.714-.12-1.25-.358-1.606-.24-.357-.615-.536-1.129-.536-.66 0-1.155.236-1.482.708-.328.472-.492 1.222-.492 2.248v4.965zM74.364 23.86c0 1.015-.353 1.788-1.058 2.32-.705.53-1.76.796-3.164.796-.72 0-1.333-.049-1.84-.146a6.953 6.953 0 0 1-1.425-.43v-2.23a9.398 9.398 0 0 0 1.695.593c.628.16 1.181.239 1.659.239.98 0 1.47-.283 1.47-.85a.71.71 0 0 0-.195-.517c-.13-.133-.355-.283-.673-.452a17.096 17.096 0 0 0-1.275-.588c-.76-.319-1.32-.614-1.677-.885a2.482 2.482 0 0 1-.778-.934c-.163-.351-.244-.783-.244-1.297 0-.879.34-1.558 1.022-2.04.682-.48 1.648-.72 2.898-.72 1.193 0 2.352.26 3.479.778l-.814 1.947a15.04 15.04 0 0 0-1.39-.522 4.365 4.365 0 0 0-1.319-.203c-.796 0-1.194.215-1.194.646 0 .242.128.451.385.628.256.177.818.44 1.686.788.773.313 1.34.604 1.699.876.36.271.625.584.796.938.172.354.257.776.257 1.265m-12.202 2.938h2.7v-9.894h-2.7v9.894zm-.115-12.452c0-.879.49-1.318 1.469-1.318.979 0 1.469.439 1.469 1.318 0 .42-.122.745-.367.978-.245.233-.612.35-1.102.35-.98 0-1.47-.443-1.47-1.328zm-2.229 2.372c.366 0 .67.026.911.08l-.203 2.53a3.101 3.101 0 0 0-.797-.088c-.861 0-1.532.221-2.013.664-.48.442-.721 1.062-.721 1.858v5.036h-2.7v-9.894h2.045l.398 1.663h.133a3.722 3.722 0 0 1 1.244-1.34 3.066 3.066 0 0 1 1.703-.51M46.35 19.949h.902c.844 0 1.475-.167 1.894-.5.42-.334.629-.82.629-1.456 0-.643-.176-1.118-.527-1.425-.351-.307-.901-.46-1.65-.46H46.35v3.84zm6.195-2.054c0 1.392-.435 2.457-1.305 3.195-.87.737-2.108 1.106-3.713 1.106H46.35v4.602h-2.743V13.858h4.133c1.57 0 2.763.338 3.58 1.013.817.676 1.226 1.684 1.226 3.023zm-19.637 12.58L19.151 1.263a2.208 2.208 0 0 0-1.88-1.258 2.183 2.183 0 0 0-2.01 1.042L.34 25.212a2.26 2.26 0 0 0 .025 2.426L7.66 38.935a2.346 2.346 0 0 0 2.635.969l21.17-6.262a2.32 2.32 0 0 0 1.457-1.258 2.27 2.27 0 0 0-.013-1.91zm-3.08 1.254L11.864 37.04c-.548.163-1.074-.312-.96-.866l6.418-30.73c.12-.575.914-.667 1.165-.134l11.881 25.23a.858.858 0 0 1-.542 1.188z" fill-rule="evenodd" clip-rule="evenodd"></path></svg>