<svg xmlns="http://www.w3.org/2000/svg" height="80" viewBox="0 0 831.33 153.19"><defs><style>.cls-1{fill:#0c344b;}</style></defs><title>prisma-cn</title><g id="图层_2" data-name="图层 2"><g id="图层_1-2" data-name="图层 1"><path class="cls-1" d="M61.13,1.06C59.46,2.2,56,6.53,56,7.46c0,.2-2.27,4-5.13,8.53s-6.73,10.87-8.73,14.2c-3.87,6.33-5.6,9.13-9.53,15.47C30.13,49.59,6.27,88.39,3.47,93.06,1.27,96.66,0,99.59,0,101.12c0,2.13,1.27,4.47,9.27,16.73,4.13,6.4,8.33,12.93,9.33,14.53,10.8,17.73,13.53,20.8,18,20.8,1.73,0,11.07-2.6,28.73-8,3.47-1,17.6-5.27,31.4-9.33,28.93-8.6,30-9.2,29.6-15.67-.13-2.67-.73-4.07-8.73-20.87-2.33-4.93-4.27-9-4.27-9.13s-1.93-4.33-4.33-9.33-5-10.47-5.73-12.2-2.93-6.27-4.8-10.13-4.13-8.8-5.13-11-3.27-7-5-10.67-4-8.47-5-10.67-3.13-6.73-4.67-10-3.53-7.53-4.33-9.33C72.13,2.13,70.06.4,66.2.06,63.8-.14,62.53.13,61.13,1.06Zm9.47,19.2A7.39,7.39,0,0,1,72,22.53a85.91,85.91,0,0,0,3.93,8.73c2.13,4.53,5.67,12.13,7.93,16.93s5.53,11.93,7.47,16,4.13,8.8,5,10.67,3.67,7.8,6.2,13.33,6.67,14.2,9.13,19.33c4.4,9.2,5.13,11.8,3.8,13.13-.53.53-12.6,4.4-20.47,6.53-1.07.33-6.07,1.73-11,3.2-31.73,9.47-38.66,11.47-39.8,11.47a2.69,2.69,0,0,1-1.93-1.13c-.73-1.27-.87-.6,6.07-33.87,1.67-8.07,5-24,7.33-35.33S61,45.59,62.33,39.19c3.53-17,4.2-19.47,5.13-20.07C68.8,18.26,69.13,18.39,70.6,20.26Z"/><path class="cls-1" d="M170.87,52.19h16.06c11.81,0,20.23,4,20.23,16,0,11.59-8.42,16.92-19.95,16.92h-8v20.09h-8.35ZM186.42,78.4c8.5,0,12.53-3.24,12.53-10.23s-4.39-9.29-12.82-9.29h-6.91V78.4Z"/><path class="cls-1" d="M216.73,65.58h6.77l.65,7.13h.22c2.81-5.11,7-8.14,11.23-8.14a9.86,9.86,0,0,1,4.46.86l-1.51,7.2a11.72,11.72,0,0,0-4-.65c-3.24,0-7.13,2.23-9.65,8.5v24.7h-8.21Z"/><path class="cls-1" d="M245,53.27c0-3,2.23-4.9,5.26-4.9s5.33,1.94,5.33,4.9-2.3,4.9-5.33,4.9S245,56.15,245,53.27Zm1.15,12.31h8.21v39.6h-8.21Z"/><path class="cls-1" d="M262.67,100.65l3.89-5.33c3.53,2.81,7,4.54,11.23,4.54,4.75,0,7-2.3,7-5.33,0-3.6-4.46-5.18-8.79-6.84-5.26-2-11.3-4.82-11.3-11.52s5.33-11.59,14-11.59a20.85,20.85,0,0,1,12.89,4.68l-3.89,5.11c-2.74-2-5.54-3.46-8.86-3.46-4.32,0-6.34,2.16-6.34,4.9,0,3.38,4.1,4.68,8.42,6.26,5.54,2.09,11.67,4.54,11.67,12,0,6.62-5.26,12-15,12A24.36,24.36,0,0,1,262.67,100.65Z"/><path class="cls-1" d="M301.4,65.58h6.77l.65,5.54H309c3.38-3.6,7.34-6.55,12.24-6.55,5.9,0,9.22,2.74,10.94,7.27,3.89-4.18,7.92-7.27,12.89-7.27,8.28,0,12.17,5.62,12.17,15.7v24.91H349V81.28c0-6.84-2.16-9.58-6.62-9.58-2.74,0-5.62,1.8-8.93,5.4v28.08h-8.28V81.28c0-6.84-2.09-9.58-6.62-9.58-2.66,0-5.62,1.8-8.93,5.4v28.08H301.4Z"/><path class="cls-1" d="M366.92,94.67c0-8.5,7.2-12.89,23.69-14.69-.07-4.61-1.73-8.64-7.56-8.64-4.18,0-8.06,1.87-11.45,4l-3.1-5.62c4.1-2.59,9.65-5.18,16-5.18,9.86,0,14.4,6.26,14.4,16.78v23.83h-6.77l-.72-4.54h-.22c-3.6,3.1-7.85,5.47-12.6,5.47C371.75,106.12,366.92,101.65,366.92,94.67Zm23.69.29V85.24c-11.74,1.44-15.7,4.39-15.7,8.86,0,3.89,2.66,5.47,6.19,5.47S387.37,97.91,390.61,95Z"/><path class="cls-1" d="M471,51.25V64.43h-7.06V57.52H416.39v6.91h-6.7V51.25h28.37A26.43,26.43,0,0,0,436,45.92l6.84-1.51a43.22,43.22,0,0,1,2.88,6.84ZM425.46,87.76h38.88v22.61H457.5V107.7h-32v3h-6.84V62.84h43.2V81.93H425.46Zm0-19.08v7.49h29.67V68.68Zm0,25v8.14h32V93.66Z"/><path class="cls-1" d="M507.4,63.28c-.22,3.38-.43,6.84-.86,10.23h30.6a23.07,23.07,0,0,1-.29,3c-1.37,19.87-2.74,27.79-5.62,30.75-1.94,1.94-3.82,2.52-6.84,2.81a101.49,101.49,0,0,1-12.17-.14,13.24,13.24,0,0,0-2.38-6.55c5.11.43,10,.5,12,.5a5.06,5.06,0,0,0,3.46-.86c2-1.66,3.31-8.35,4.46-23H505.52c-2.3,12.38-7.56,24-20.88,31.18a20.61,20.61,0,0,0-4.9-5.47C497.6,96.61,499.26,79.12,500,63.28H481.11V56.72h30.82a71.88,71.88,0,0,0-4.54-10.08l6.55-2.45a72.87,72.87,0,0,1,5.11,10.44l-4.82,2.09h29.59v6.55Z"/><path class="cls-1" d="M613.38,57.37V91.79h-7V87.9H587.68v22.9h-7V87.9H562v4.25h-6.7V57.37h25.35V44.84h7V57.37Zm-32.69,24V63.92H562V81.35Zm25.71,0V63.92H587.68V81.35Z"/><path class="cls-1" d="M677.68,63.64a74.35,74.35,0,0,1-15.91,26.86,71,71,0,0,0,28.15,13.68,30.53,30.53,0,0,0-4.54,6.19,71.78,71.78,0,0,1-28.8-15c-8,6.77-17.79,11.81-29.45,15.41a34.82,34.82,0,0,0-4.18-6.41c11.59-3.1,21-7.56,28.66-13.83-7-7.42-12.31-16.42-16.35-26.93H624.18V57.15h31.18a58.07,58.07,0,0,0-4.82-10.87l7.06-2.09a58.36,58.36,0,0,1,5.33,10.94l-6.41,2h32.33v6.48Zm-35.43,0a69.3,69.3,0,0,0,14.4,22.25,62.17,62.17,0,0,0,13.54-22.25Z"/><path class="cls-1" d="M749.68,63.64a74.35,74.35,0,0,1-15.91,26.86,71,71,0,0,0,28.15,13.68,30.53,30.53,0,0,0-4.54,6.19,71.78,71.78,0,0,1-28.8-15c-8,6.77-17.79,11.81-29.45,15.41a34.82,34.82,0,0,0-4.18-6.41c11.59-3.1,21-7.56,28.66-13.83-7-7.42-12.31-16.42-16.35-26.93H696.18V57.15h31.18a58.07,58.07,0,0,0-4.82-10.87l7.06-2.09a58.36,58.36,0,0,1,5.33,10.94l-6.41,2h32.33v6.48Zm-35.43,0a69.3,69.3,0,0,0,14.4,22.25,62.17,62.17,0,0,0,13.54-22.25Z"/><path class="cls-1" d="M789.42,86.6a109.7,109.7,0,0,0-5.33-9.79v34.06h-6.26V79.33c-2.23,7.27-5.11,14.19-8.21,18.58a32.93,32.93,0,0,0-3.31-6C770.55,86,774.73,75.3,776.74,66H768V59.82h9.86v-15h6.26v15h8.64V66h-8.64V68.6c2,2.59,7.92,10.8,9.22,12.82Zm25.49-15.48h15.48v39h-6.55v-3.89H791V99.85h32.83V91.5H793.59v-6h30.24V77.53H792.66V71.12H808.5V45h6.41Zm-16.13-3.31a129.21,129.21,0,0,0-6.19-16.49l5.54-1.94a140,140,0,0,1,6.41,16.06Zm32.55-16.71a169.51,169.51,0,0,1-7.85,17.07l-5.33-1.66a107.84,107.84,0,0,0,6.7-17.07Z"/></g></g></svg>