<?xml version="1.0" standalone="no"?>
<!DOCTYPE svg PUBLIC "-//W3C//DTD SVG 20010904//EN"
 "http://www.w3.org/TR/2001/REC-SVG-20010904/DTD/svg10.dtd">
<svg version="1.0" xmlns="http://www.w3.org/2000/svg"
 width="260.000000pt" height="260.000000pt" viewBox="0 0 260.000000 260.000000"
 preserveAspectRatio="xMidYMid meet">
<metadata>
Created by potrace 1.11, written by Peter Selinger 2001-2013
</metadata>
<g transform="translate(0.000000,260.000000) scale(0.100000,-0.100000)"
fill="#0c344b" stroke="none">
<path d="M1267 2432 c-25 -17 -77 -82 -77 -96 0 -3 -34 -60 -77 -128 -42 -68
-101 -163 -131 -213 -58 -95 -84 -137 -143 -232 -37 -59 -395 -641 -437 -711
-33 -54 -52 -98 -52 -121 0 -32 19 -67 139 -251 62 -96 125 -194 140 -218 162
-266 203 -312 270 -312 26 0 166 39 431 120 52 15 264 79 471 140 434 129 450
138 444 235 -2 40 -11 61 -131 313 -35 74 -64 135 -64 137 0 2 -29 65 -65 140
-36 75 -75 157 -86 183 -12 26 -44 94 -72 152 -27 58 -62 132 -77 165 -15 33
-49 105 -75 160 -26 55 -60 127 -75 160 -15 33 -47 101 -70 150 -23 50 -53
113 -65 140 -33 71 -64 97 -122 102 -36 3 -55 -1 -76 -15z m142 -288 c12 -15
21 -30 21 -34 0 -5 26 -64 59 -131 32 -68 85 -182 119 -254 33 -71 83 -179
112 -240 28 -60 62 -132 75 -160 13 -27 55 -117 93 -200 39 -82 100 -213 137
-290 66 -138 77 -177 57 -197 -8 -8 -189 -66 -307 -98 -16 -5 -91 -26 -165
-48 -476 -142 -580 -172 -597 -172 -10 0 -23 8 -29 17 -11 19 -13 9 91 508 25
121 75 360 110 530 35 171 80 389 100 485 53 255 63 292 77 301 20 13 25 11
47 -17z"/>
</g>
</svg>
